<svg width="121" height="69" viewBox="0 0 121 69" fill="none" xmlns="http://www.w3.org/2000/svg">
<path d="M12.3011 18C12.3011 19.4728 13.495 20.6667 14.9678 20.6667C16.4405 20.6667 17.6344 19.4728 17.6344 18C17.6344 16.5272 16.4405 15.3333 14.9678 15.3333C13.495 15.3333 12.3011 16.5272 12.3011 18ZM14.9678 18.5H46.0322V17.5H14.9678V18.5Z" fill="white"/>
<path d="M0.333333 28C0.333333 29.4728 1.52724 30.6667 3 30.6667C4.47276 30.6667 5.66667 29.4728 5.66667 28C5.66667 26.5272 4.47276 25.3333 3 25.3333C1.52724 25.3333 0.333333 26.5272 0.333333 28ZM3 28.5L46 28.5V27.5L3 27.5V28.5Z" fill="white"/>
<path d="M0.36556 40C0.36556 41.4728 1.55947 42.6667 3.03223 42.6667C4.50499 42.6667 5.69889 41.4728 5.69889 40C5.69889 38.5272 4.50499 37.3333 3.03223 37.3333C1.55947 37.3333 0.36556 38.5272 0.36556 40ZM3.03223 40.5L46.0322 40.5V39.5L3.03223 39.5V40.5Z" fill="white"/>
<path d="M53.408 46H45.92V15.184H55.088L60.08 31.648L65.072 15.184H74.24V46H66.8V26.416L62.96 39.328H57.2L53.408 26.512V46ZM75.6762 15.184H89.8363C94.5402 15.184 96.8922 17.168 96.8922 21.136V40.048C96.8922 44.016 94.5402 46 89.8363 46H75.6762V15.184ZM88.4922 39.424V21.76C88.4922 21.056 88.0922 20.704 87.2923 20.704H84.0762V40.48H87.2923C88.0922 40.48 88.4922 40.128 88.4922 39.424ZM110.634 26.752V21.76C110.634 21.056 110.234 20.704 109.434 20.704H105.978V27.808H109.434C110.234 27.808 110.634 27.456 110.634 26.752ZM110.634 39.424V34.384C110.634 33.68 110.234 33.328 109.434 33.328H105.978V40.48H109.434C110.234 40.48 110.634 40.128 110.634 39.424ZM97.7225 15.184H111.834C116.538 15.184 118.89 17.168 118.89 21.136V25.072C118.89 27.856 118.122 29.664 116.586 30.496C117.482 30.88 118.09 31.472 118.41 32.272C118.73 33.04 118.89 34.096 118.89 35.44V40.048C118.89 44.016 116.538 46 111.834 46H97.7225V15.184Z" fill="white" fill-opacity="0.75"/>
</svg>
